<svg id="VideoPack_OC_dates" xmlns="http://www.w3.org/2000/svg" width="600" height="940.001" viewBox="0 0 600 940.001">
  <path id="Subtraction_14" data-name="Subtraction 14" d="M600,940H0V0H600V940ZM480,796c-7.871,0-13.974,2.973-18.137,8.838-4.222,5.946-6.362,14.748-6.362,26.162s2.141,20.216,6.362,26.163C466.026,863.026,472.128,866,480,866s13.974-2.973,18.138-8.838c4.222-5.946,6.363-14.748,6.363-26.163s-2.141-20.216-6.363-26.162C493.974,798.973,487.871,796,480,796ZM540,824h0l8.5,41h10.7l7.3-68h-7.7L553,855.1,544.3,815h-8.6l-8.5,40-6-58h-7.7l7.3,68h10.8ZM407,809.2,430.6,865H441V797h-7.9v55.9L409.4,797H399v68h8V809.205ZM273.5,797l22.4,41.4V865h8.6V838.4l22-41.4h-9.6l-16.5,33-16.9-33ZM220,797h0v68h42.5v-8H228.6V797H220Zm-61,0v68h8.6V839.2h14.9a28.864,28.864,0,0,0,9.512-1.458,18.224,18.224,0,0,0,6.887-4.2,17.7,17.7,0,0,0,4.187-6.7A26.551,26.551,0,0,0,204.5,817.9a28.635,28.635,0,0,0-1.328-9.172,16.09,16.09,0,0,0-4.047-6.528,17.192,17.192,0,0,0-6.859-3.9A32.978,32.978,0,0,0,182.5,797H159Zm-60,0v68h8.6V839.2h14.9a28.864,28.864,0,0,0,9.513-1.458,18.225,18.225,0,0,0,6.888-4.2,17.7,17.7,0,0,0,4.188-6.7A26.547,26.547,0,0,0,144.5,817.9a28.635,28.635,0,0,0-1.328-9.172,16.089,16.089,0,0,0-4.047-6.528,17.192,17.192,0,0,0-6.86-3.9A32.981,32.981,0,0,0,122.5,797H99ZM47.6,846.4H72.2L77.6,865h8.9L65.4,797h-11L33.5,865h8.7l5.4-18.6ZM31,734.5v6H570v-6H31Zm520.06-81.07a11.107,11.107,0,0,0-9.613,4.684c-2.237,3.151-3.372,7.816-3.372,13.866s1.134,10.716,3.372,13.867a12.206,12.206,0,0,0,19.226,0c2.238-3.152,3.373-7.817,3.373-13.867s-1.135-10.714-3.373-13.866A11.107,11.107,0,0,0,551.057,653.43Zm-71.709,26.659L475,681.2a11.826,11.826,0,0,0,4.578,6.97,14.5,14.5,0,0,0,8.513,2.359,15.278,15.278,0,0,0,5.277-.888,11.827,11.827,0,0,0,4.064-2.478,10.923,10.923,0,0,0,2.614-3.789,12.5,12.5,0,0,0,.924-4.823c0-7.083-4.6-11.66-11.714-11.66a14.815,14.815,0,0,0-8.638,2.544l1.112-11.236H499.01v-4.24H478.182L476.327,672.4l4.027,1.165a9.275,9.275,0,0,1,3.346-1.981,14.323,14.323,0,0,1,4.816-.828c4.872,0,7.9,3.006,7.9,7.844a7.747,7.747,0,0,1-2.292,5.823,9.3,9.3,0,0,1-14.774-4.34ZM392.056,653.43a11.107,11.107,0,0,0-9.613,4.684c-2.238,3.152-3.372,7.817-3.372,13.866s1.135,10.715,3.372,13.867a12.206,12.206,0,0,0,19.226,0c2.238-3.151,3.372-7.817,3.372-13.867s-1.135-10.714-3.372-13.866A11.107,11.107,0,0,0,392.056,653.43Zm124.179,30.157V690h6.042v-6.414h-6.042ZM412.727,653.96h0V690h4.558V674.577h17.067v-4.134H417.284V658.2h18.232v-4.24h-22.79Zm-90.842,26.182h13.038L337.784,690H342.5L331.319,653.96h-5.83L314.411,690h4.611l2.862-9.858Zm-31.8-3.869h7.632L305.136,690h5.036l-7.738-14.363c4.265-1.474,6.519-5.139,6.519-10.6,0-3.7-.932-6.51-2.769-8.361-1.789-1.8-4.46-2.717-7.936-2.717h-12.72V690h4.558V676.274ZM253.726,653.96h0V690h22.631v-4.24H258.285V673.835H275.35V669.7H258.285V658.2h18.231v-4.24h-22.79Zm-63.6,0h0V690h22.63v-4.24H194.684V673.835H211.75V669.7H194.684V658.2h18.232v-4.24h-22.79Zm-27.242,19.981h13.143V690h4.559V653.96h-4.559V669.7H162.885V653.96h-4.559V690h4.559V673.942ZM124.672,653.96h0v4.24h10.705V690h4.558V658.2h10.705v-4.24h-25.97Zm-57.5,6.471L79.674,690h5.513V653.96H81v29.627L68.439,653.96H62.926V690h4.24V660.431ZM31.657,685.866h0V690h21.2v-4.135H44.483V658.094h8.374V653.96h-21.2v4.135H40.03v27.771H31.657ZM415.8,629.718l-4.4.742a11.785,11.785,0,0,0,4.16,7.639c2.1,1.613,5,2.431,8.613,2.431A14,14,0,0,0,432.827,638a9.145,9.145,0,0,0,3.485-7.539c0-5.471-2.5-8.495-8.11-9.8l-5.671-1.326c-3.8-.862-5.352-2.535-5.352-5.776a5.994,5.994,0,0,1,1.722-4.412,7.056,7.056,0,0,1,5.061-1.789,7.653,7.653,0,0,1,5.426,1.888,8.476,8.476,0,0,1,2.365,4.631l4.293-.689a11.51,11.51,0,0,0-3.723-7.122,12.373,12.373,0,0,0-8.255-2.63,13.812,13.812,0,0,0-4.567.735,10.528,10.528,0,0,0-3.588,2.087,9.779,9.779,0,0,0-3.186,7.513c0,5.373,2.632,8.381,8.533,9.752l5.777,1.325a6.5,6.5,0,0,1,3.763,1.994,5.761,5.761,0,0,1,1.06,3.783,5.364,5.364,0,0,1-2.081,4.425,8.954,8.954,0,0,1-5.5,1.563c-4.787,0-7.4-2.125-8.481-6.89Zm-31.8,0-4.4.742a11.787,11.787,0,0,0,4.161,7.639c2.1,1.613,5,2.431,8.613,2.431A14,14,0,0,0,401.027,638a9.145,9.145,0,0,0,3.485-7.539c0-5.471-2.5-8.495-8.109-9.8l-5.671-1.326c-3.8-.862-5.353-2.535-5.353-5.776a5.994,5.994,0,0,1,1.722-4.412,7.058,7.058,0,0,1,5.062-1.789,7.652,7.652,0,0,1,5.426,1.888,8.479,8.479,0,0,1,2.365,4.631l4.293-.689a11.51,11.51,0,0,0-3.723-7.122,12.373,12.373,0,0,0-8.255-2.63,13.814,13.814,0,0,0-4.567.735,10.529,10.529,0,0,0-3.588,2.087,9.779,9.779,0,0,0-3.186,7.513c0,5.373,2.632,8.381,8.533,9.752l5.777,1.325A6.493,6.493,0,0,1,399,626.836a5.763,5.763,0,0,1,1.06,3.783,5.364,5.364,0,0,1-2.08,4.425,8.955,8.955,0,0,1-5.5,1.563c-4.786,0-7.4-2.125-8.48-6.89ZM169.457,603.43a11.107,11.107,0,0,0-9.613,4.684c-2.238,3.151-3.372,7.816-3.372,13.866s1.134,10.715,3.372,13.866a12.206,12.206,0,0,0,19.226,0c2.238-3.151,3.372-7.816,3.373-13.866s-1.135-10.714-3.373-13.866A11.107,11.107,0,0,0,169.457,603.43Zm179.67.53V640h22.631v-4.24H353.685V623.835h17.066V619.7H353.685V608.2h18.231v-4.24h-22.79Zm-27.558,6.471L334.075,640h5.512V603.96H335.4v29.627L322.838,603.96h-5.512V640h4.24V610.431Zm-31.484,15.843h7.632L305.136,640h5.036l-7.738-14.363c4.265-1.474,6.519-5.14,6.519-10.6,0-3.7-.932-6.509-2.769-8.36-1.789-1.8-4.459-2.716-7.936-2.716h-12.72V640h4.558V626.274ZM253.726,603.96V640h22.631v-4.24H258.285V623.835H275.35V619.7H258.285V608.2h18.231v-4.24h-22.79Zm-27.242,19.981h13.144V640h4.558V603.96h-4.558V619.7H226.484V603.96h-4.558V640h4.558V623.942ZM188.271,603.96v4.24h10.706V640h4.558V608.2h10.706v-4.24h-25.97Zm-93.544,0V640H104c5.044,0,8.927-1.6,11.541-4.757,2.541-3.068,3.829-7.53,3.829-13.263,0-5.709-1.268-10.171-3.77-13.263-2.554-3.156-6.3-4.757-11.124-4.757H94.727Zm-27.559,6.471L79.674,640h5.513V603.96H81v29.627L68.439,603.96H62.926V640h4.24V610.431ZM35.684,630.142H48.722L51.584,640H56.3L45.119,603.96h-5.83L28.211,640h4.611l2.862-9.857ZM169.457,553.43h0a11.107,11.107,0,0,0-9.613,4.684c-2.238,3.151-3.372,7.817-3.372,13.866s1.134,10.715,3.372,13.866a12.207,12.207,0,0,0,19.226,0c2.238-3.151,3.373-7.817,3.373-13.866s-1.135-10.714-3.373-13.866A11.107,11.107,0,0,0,169.457,553.43Zm-31.111,0a12.989,12.989,0,0,0-5.759,1.251,11.74,11.74,0,0,0-4.3,3.631,17.221,17.221,0,0,0-2.688,5.828,33.547,33.547,0,0,0,0,15.68,17.222,17.222,0,0,0,2.688,5.827,11.742,11.742,0,0,0,4.3,3.631,12.992,12.992,0,0,0,5.759,1.251,12.14,12.14,0,0,0,8.52-3.074,14.954,14.954,0,0,0,4.306-8.639l-4.293-.689a12.71,12.71,0,0,1-2.816,6.062,7.475,7.475,0,0,1-5.717,2.365,7.642,7.642,0,0,1-3.982-1.048,8.447,8.447,0,0,1-2.869-2.961c-1.517-2.517-2.319-6.171-2.319-10.567s.8-8.049,2.319-10.566a8.448,8.448,0,0,1,2.869-2.961,7.643,7.643,0,0,1,3.982-1.047,7.25,7.25,0,0,1,5.645,2.424,13.534,13.534,0,0,1,2.782,6l4.293-.688a14.677,14.677,0,0,0-4.193-8.6,11.213,11.213,0,0,0-3.774-2.312A13.69,13.69,0,0,0,138.345,553.43ZM97.8,579.718l-4.4.743a11.785,11.785,0,0,0,4.161,7.638c2.1,1.613,5,2.431,8.613,2.431A14,14,0,0,0,114.827,588a9.144,9.144,0,0,0,3.485-7.539c0-5.471-2.5-8.5-8.109-9.805l-5.671-1.325c-3.8-.862-5.353-2.535-5.353-5.777a5.994,5.994,0,0,1,1.722-4.412,7.058,7.058,0,0,1,5.062-1.789,7.651,7.651,0,0,1,5.426,1.888,8.479,8.479,0,0,1,2.365,4.63l4.293-.689a11.511,11.511,0,0,0-3.724-7.122,12.373,12.373,0,0,0-8.255-2.63,13.809,13.809,0,0,0-4.567.735,10.528,10.528,0,0,0-3.588,2.087,9.781,9.781,0,0,0-3.186,7.513c0,5.373,2.632,8.381,8.533,9.752l5.777,1.325a6.5,6.5,0,0,1,3.762,1.995,5.763,5.763,0,0,1,1.06,3.783,5.365,5.365,0,0,1-2.08,4.426,8.954,8.954,0,0,1-5.5,1.564c-4.787,0-7.4-2.125-8.48-6.89h0ZM282.612,553.96,294.484,575.9V590h4.558V575.9L310.7,553.96h-5.089l-8.744,17.49-8.957-17.49Zm-24.327,22.313h7.632L273.336,590h5.036l-7.738-14.363c4.265-1.474,6.519-5.139,6.519-10.6,0-3.7-.932-6.51-2.769-8.361-1.789-1.8-4.459-2.716-7.936-2.716H253.726V590h4.558V576.274ZM221.927,553.96h0V590h22.63V585.76H226.484V573.835h17.067V569.7H226.484V558.2h18.232v-4.24h-22.79Zm-34.715,0L198.818,590h4.876L215.3,553.96h-4.664l-9.328,30.263-9.328-30.263ZM63.456,585.866h0V590h21.2v-4.135H76.282V558.094h8.374V553.96h-21.2v4.134h8.375v27.772H63.456ZM31.127,553.96V590H40.4c5.044,0,8.927-1.6,11.541-4.757,2.541-3.068,3.829-7.53,3.829-13.264,0-5.709-1.268-10.171-3.77-13.263-2.553-3.156-6.3-4.757-11.124-4.757H31.127ZM31,514.5v6H570v-6H31Zm76.944-30.3v4.44h4.32a8.329,8.329,0,0,0,5.678-1.718c1.314-1.091,2.379-2.749,3.562-5.542l13.8-32.94H130.38l-9.3,22.98-11.1-22.98H104.7l13.92,28.2L117.18,480c-1.422,3.258-2.714,4.2-5.76,4.2h-3.48ZM552,435.6a20.326,20.326,0,0,0-5.757.758,12.171,12.171,0,0,0-4.3,2.2,9.487,9.487,0,0,0-2.692,3.543,11.8,11.8,0,0,0-.931,4.774,10.547,10.547,0,0,0,1.522,5.64A8.828,8.828,0,0,0,544.02,456a9.6,9.6,0,0,0-4.68,3.525,10.645,10.645,0,0,0-1.8,6.135c0,7.588,5.27,11.94,14.459,11.94a21.588,21.588,0,0,0,6.183-.82,12.666,12.666,0,0,0,4.535-2.361,9.988,9.988,0,0,0,2.791-3.755,12.65,12.65,0,0,0,.952-5,10.452,10.452,0,0,0-1.807-6.135A9.643,9.643,0,0,0,559.92,456a8.857,8.857,0,0,0,4.23-3.48,10.489,10.489,0,0,0,1.53-5.64,11.879,11.879,0,0,0-.923-4.774,9.443,9.443,0,0,0-2.677-3.543,12.1,12.1,0,0,0-4.3-2.2A20.455,20.455,0,0,0,552,435.6Zm-71.4,12.24a13.476,13.476,0,0,0-9.847,3.75,12.783,12.783,0,0,0-2.9,4.654,18.828,18.828,0,0,0-1.051,6.476,19.423,19.423,0,0,0,1.013,6.477,12.736,12.736,0,0,0,2.819,4.654,13.13,13.13,0,0,0,9.727,3.75,13.309,13.309,0,0,0,7.943-2.37,10.945,10.945,0,0,0,4.117-6.15l-4.32-.96a7.878,7.878,0,0,1-2.587,3.728,8.194,8.194,0,0,1-5.153,1.613,8.321,8.321,0,0,1-6.36-2.475c-1.564-1.671-2.432-4.109-2.58-7.245h21.72c.06-.54.06-1.5.06-2.52a13.766,13.766,0,0,0-3.533-9.84A12.273,12.273,0,0,0,480.6,447.84Zm-84.6.6v18.9a12.7,12.7,0,0,0,.727,4.438,8.519,8.519,0,0,0,2.078,3.212,10.686,10.686,0,0,0,7.575,2.61,11.547,11.547,0,0,0,5.055-1.178,9.49,9.49,0,0,0,3.885-3.383V477H420V448.44h-4.8v17.1a7.615,7.615,0,0,1-2.25,5.647,7.836,7.836,0,0,1-5.49,2.093c-4.295,0-6.66-2.365-6.66-6.66V448.44H396ZM85.98,460.5c-3.4,0-6.956.094-9.765,1.222-3.24,1.3-4.815,3.747-4.815,7.477a7.573,7.573,0,0,0,2.917,6.248A12.12,12.12,0,0,0,81.78,477.6a13.276,13.276,0,0,0,5.827-1.23,9.438,9.438,0,0,0,3.893-3.39V477H96V457.98c0-3.426-1.07-6.041-3.18-7.77-1.919-1.573-4.624-2.37-8.04-2.37a13.992,13.992,0,0,0-8.137,2.235,10.577,10.577,0,0,0-4.222,6.285l4.5.9c1.076-3.432,3.941-5.4,7.86-5.4a6.911,6.911,0,0,1,4.762,1.537,6.168,6.168,0,0,1,1.838,4.822v2.34C89.76,460.5,88.174,460.5,85.98,460.5Zm358.56-8.34c4.295,0,6.66,2.365,6.66,6.66V477H456V458.1a12.7,12.7,0,0,0-.728-4.438,8.517,8.517,0,0,0-2.078-3.212,10.688,10.688,0,0,0-7.575-2.61,11.543,11.543,0,0,0-5.055,1.177,9.493,9.493,0,0,0-3.885,3.383v-3.96H432V477h4.8V459.9a7.615,7.615,0,0,1,2.25-5.648A7.835,7.835,0,0,1,444.54,452.16ZM360,472.26V477h7.26a27.03,27.03,0,0,0,7.306-.846,11.839,11.839,0,0,0,5.016-2.679,10.814,10.814,0,0,0,2.89-4.727,22.71,22.71,0,0,0,.927-6.988V436.2H362.7V441h15.54v20.76c0,4.454-1.227,7.385-3.75,8.962-2.27,1.418-5.263,1.537-7.891,1.537H360ZM229.079,440.1h0a7.308,7.308,0,0,1,5.49,2.085,7.705,7.705,0,0,1,1.89,5.415c0,5.057-3.353,8.772-9.54,13.86L214.5,471.72V477h27.6v-4.8H220.56l9.3-7.38c4.644-3.661,7.24-6.13,8.962-8.52a14.034,14.034,0,0,0,2.8-8.7,11.868,11.868,0,0,0-3.27-8.7c-2.19-2.159-5.375-3.3-9.21-3.3a16.78,16.78,0,0,0-5.679.934,13.72,13.72,0,0,0-4.469,2.628,16.148,16.148,0,0,0-4.972,9.278l4.92.9a13,13,0,0,1,3.517-6.623A9.4,9.4,0,0,1,229.079,440.1ZM179.46,472.2V477H207.9v-4.8H196.8v-36h-5.58l-13.92,8.1,2.4,4.08,12.06-6.72V472.2h-12.3Zm-121.5-29.574h0V477H62.7V436.2H55.44L48,459.54,40.56,436.2H33.3V477h4.74V442.98l7.619,22.98h4.68ZM291.6,458.58v4.68h16.8v-4.68H291.6ZM31,392.5v6H570v-6H31ZM361.3,281a24.514,24.514,0,0,0-10.866,2.361,22.156,22.156,0,0,0-8.109,6.852,32.5,32.5,0,0,0-5.072,11,63.292,63.292,0,0,0,0,29.584,32.5,32.5,0,0,0,5.072,11,22.156,22.156,0,0,0,8.109,6.851A24.513,24.513,0,0,0,361.3,351a26.133,26.133,0,0,0,8.956-1.484,21.1,21.1,0,0,0,7.119-4.316,23.829,23.829,0,0,0,5.131-6.941,34.539,34.539,0,0,0,2.993-9.36l-8.1-1.3c-1.062,4.938-2.849,8.786-5.312,11.437A14.106,14.106,0,0,1,361.3,343.5a14.419,14.419,0,0,1-7.512-1.977,15.942,15.942,0,0,1-5.412-5.586,28.643,28.643,0,0,1-3.275-8.68,58.157,58.157,0,0,1,0-22.515,28.643,28.643,0,0,1,3.275-8.68,15.941,15.941,0,0,1,5.412-5.586A14.42,14.42,0,0,1,361.3,288.5a14.89,14.89,0,0,1,6.113,1.218,13.439,13.439,0,0,1,4.538,3.356c2.341,2.616,4.107,6.426,5.25,11.325l8.1-1.3a32.88,32.88,0,0,0-2.836-9.275,23.525,23.525,0,0,0-5.077-6.95,21.151,21.151,0,0,0-7.12-4.362A25.827,25.827,0,0,0,361.3,281ZM60,281c-7.872,0-13.974,2.973-18.138,8.837C37.64,295.783,35.5,304.586,35.5,316s2.141,20.217,6.363,26.163C46.026,348.027,52.129,351,60,351s13.974-2.973,18.137-8.838C82.36,336.216,84.5,327.414,84.5,316s-2.141-20.216-6.363-26.163C73.974,283.973,67.872,281,60,281Zm460,1h0v68h42.5v-8H528.6V282H520Zm-60,0h0v68h42.5v-8H468.6V282H460Zm-52.4,49.4h24.6l5.4,18.6h8.9l-21.1-68h-11l-20.9,68h8.7l5.4-18.6ZM227,294.2,250.6,350H261V282h-7.9v55.9L229.4,282H219v68h8V294.205ZM159,282h0v68h42.7v-8H167.6V319.5h32.2v-7.8H167.6V290H202v-8H159Zm-60,0v68h8.6V324.2h14.9a28.86,28.86,0,0,0,9.513-1.458,18.228,18.228,0,0,0,6.888-4.2,17.7,17.7,0,0,0,4.188-6.7A26.545,26.545,0,0,0,144.5,302.9a28.636,28.636,0,0,0-1.328-9.172,16.093,16.093,0,0,0-4.047-6.528,17.191,17.191,0,0,0-6.86-3.9A32.983,32.983,0,0,0,122.5,282H99ZM26.357,29.4V165l57.325,56.218h81.05l57.326-56.22V85.5L186.973,51.1h35.086V29.4H164.835l-.1-.1H88.245l-50.966.1H26.357ZM480,858.5a12.983,12.983,0,0,1-11.887-7.038C465.45,846.825,464.1,839.94,464.1,831s1.35-15.825,4.012-20.462a13.559,13.559,0,0,1,23.775,0c2.663,4.637,4.013,11.522,4.013,20.462s-1.35,15.825-4.013,20.463A12.984,12.984,0,0,1,480,858.5ZM69.9,838.8H49.7L59.8,804l10.1,34.8Zm112.2-7.5H167.6V804.9h14.5c4.362,0,7.588.9,9.863,2.762a9.786,9.786,0,0,1,2.892,4.03A17.144,17.144,0,0,1,195.9,818c0,4.313-1.161,7.635-3.45,9.875C190.127,830.148,186.645,831.3,182.1,831.3Zm-60,0H107.6V804.9h14.5c4.362,0,7.588.9,9.862,2.762a9.786,9.786,0,0,1,2.892,4.03A17.144,17.144,0,0,1,135.9,818c0,4.313-1.161,7.635-3.45,9.875C130.127,830.148,126.645,831.3,122.1,831.3ZM551.057,686.555a6.882,6.882,0,0,1-6.3-3.73c-1.411-2.458-2.126-6.107-2.126-10.846s.715-8.387,2.126-10.845a7.186,7.186,0,0,1,12.6,0c1.411,2.458,2.127,6.107,2.127,10.845s-.716,8.388-2.127,10.846A6.882,6.882,0,0,1,551.057,686.555Zm-159,0a6.882,6.882,0,0,1-6.3-3.73c-1.411-2.458-2.126-6.107-2.126-10.846s.715-8.387,2.126-10.845a7.186,7.186,0,0,1,12.6,0c1.411,2.458,2.127,6.107,2.127,10.845s-.716,8.388-2.127,10.846A6.882,6.882,0,0,1,392.056,686.555ZM333.7,676.114H323l5.353-18.445,5.353,18.443Zm-35.828-4.028h-7.791V658.147h7.791c2.265,0,3.808.465,4.856,1.464,1.155,1.1,1.716,2.892,1.716,5.479a7.566,7.566,0,0,1-1.557,5.168A6.421,6.421,0,0,1,297.876,672.086ZM169.457,636.555a6.881,6.881,0,0,1-6.3-3.73c-1.411-2.458-2.126-6.107-2.126-10.845s.715-8.387,2.126-10.845a7.186,7.186,0,0,1,12.6,0c1.411,2.458,2.127,6.107,2.127,10.845s-.716,8.387-2.127,10.845A6.881,6.881,0,0,1,169.457,636.555Zm-65.19-.742H99.284V608.147h4.982a11.387,11.387,0,0,1,4.613.872,8.218,8.218,0,0,1,3.277,2.606c1.728,2.293,2.6,5.777,2.6,10.355s-.876,8.063-2.6,10.355a8.22,8.22,0,0,1-3.277,2.606A11.389,11.389,0,0,1,104.267,635.813Zm-56.763-9.7H36.8l5.353-18.444L47.5,626.113Zm250.372-4.028h-7.791V608.147h7.791c2.265,0,3.808.465,4.856,1.464,1.155,1.1,1.716,2.892,1.716,5.478a7.567,7.567,0,0,1-1.557,5.168A6.42,6.42,0,0,1,297.876,622.086ZM169.457,586.555a6.882,6.882,0,0,1-6.3-3.73c-1.411-2.458-2.126-6.107-2.126-10.845s.715-8.387,2.126-10.845a7.186,7.186,0,0,1,12.6,0c1.411,2.458,2.127,6.107,2.127,10.845s-.716,8.387-2.127,10.845A6.882,6.882,0,0,1,169.457,586.555Zm-128.79-.742H35.684V558.147h4.982a11.386,11.386,0,0,1,4.613.872,8.219,8.219,0,0,1,3.277,2.606c1.728,2.293,2.6,5.776,2.6,10.355s-.876,8.062-2.6,10.355a8.22,8.22,0,0,1-3.277,2.606A11.388,11.388,0,0,1,40.667,585.813Zm225.409-13.727h-7.79V558.147h7.79c2.265,0,3.808.465,4.857,1.464,1.155,1.1,1.716,2.893,1.716,5.479a7.565,7.565,0,0,1-1.557,5.167,6.422,6.422,0,0,1-5.016,1.829ZM82.26,473.52c-3.794,0-6.06-1.7-6.06-4.56a3.826,3.826,0,0,1,2.992-3.923c2.107-.719,5.344-.818,8.528-.818,1.038,0,2.46,0,3.659.06v2.52a5.853,5.853,0,0,1-2.67,4.912A11.284,11.284,0,0,1,82.26,473.52ZM552,473.16c-5.861,0-9.36-2.826-9.36-7.56a6.781,6.781,0,0,1,2.317-5.5c1.593-1.324,3.962-1.995,7.042-1.995,6.036,0,9.36,2.663,9.36,7.5a6.867,6.867,0,0,1-2.453,5.513A10.774,10.774,0,0,1,552,473.16Zm-63.3-13.2H471.54a9.5,9.5,0,0,1,2.955-6.023,9.015,9.015,0,0,1,6.105-2.018,7.913,7.913,0,0,1,5.85,2.31,8.48,8.48,0,0,1,2.25,5.729Zm63.3-5.94c-5.691,0-8.7-2.448-8.7-7.08a6.244,6.244,0,0,1,2.235-5.048,12.207,12.207,0,0,1,12.93,0,6.244,6.244,0,0,1,2.235,5.048C560.7,451.572,557.692,454.02,552,454.02ZM60,343.5a12.984,12.984,0,0,1-11.888-7.038C45.45,331.825,44.1,324.941,44.1,316s1.35-15.825,4.012-20.462A12.984,12.984,0,0,1,60,288.5a12.983,12.983,0,0,1,11.887,7.037C74.55,300.175,75.9,307.06,75.9,316s-1.35,15.825-4.013,20.463A12.983,12.983,0,0,1,60,343.5Zm369.9-19.7H409.7L419.8,289l10.1,34.8Zm-307.8-7.5H107.6V289.9h14.5c4.362,0,7.588.9,9.862,2.762a9.783,9.783,0,0,1,2.892,4.03A17.145,17.145,0,0,1,135.9,303c0,4.313-1.161,7.635-3.45,9.875C130.127,315.147,126.645,316.3,122.1,316.3ZM80.982,153.265h-.006a56.559,56.559,0,0,1-14.457-1.721A36.353,36.353,0,0,1,54.9,146.262a32.207,32.207,0,0,1-8.6-9.025,43.373,43.373,0,0,1-5.4-12.948l13.363-3.382c1.971,6.488,5.166,11.505,9.5,14.911,4.535,3.566,10.331,5.373,17.227,5.372,7.753,0,14.316-2.089,18.978-6.039,4.753-4.028,7.265-9.79,7.265-16.664,0-6.817-2.2-12.03-6.54-15.494-4.249-3.392-10.551-5.111-18.731-5.111h-.006a69.958,69.958,0,0,0-13.524,1.45L64.4,88.061,104.81,55.052l-59.087.005V42.178l71.806-.006V58.593L82.592,86.932a39.032,39.032,0,0,1,4.186-.161h.005A47.554,47.554,0,0,1,101.173,88.8a29.379,29.379,0,0,1,10.783,5.981,25.726,25.726,0,0,1,6.769,9.785A36.316,36.316,0,0,1,121.072,118c0,10.738-3.863,19.716-11.17,25.962a36.647,36.647,0,0,1-12.671,6.914,52.974,52.974,0,0,1-16.249,2.387Z" transform="translate(0 0)" fill="#ff8ba2"/>
</svg>
