<svg id="VideoPack_OC_title" xmlns="http://www.w3.org/2000/svg" width="600" height="940.001" viewBox="0 0 600 940.001">
  <path id="Subtraction_15" data-name="Subtraction 15" d="M600,940H0V0H600V940ZM315.5,764.4c-7.084,0-12.576,2.676-16.324,7.954-3.8,5.351-5.726,13.274-5.726,23.546s1.926,18.195,5.726,23.546c3.747,5.278,9.239,7.954,16.324,7.954s12.576-2.676,16.324-7.954c3.8-5.352,5.726-13.274,5.726-23.546s-1.927-18.195-5.726-23.546C328.072,767.076,322.58,764.4,315.5,764.4Zm-118.17,45.27-7.38,1.89a20.079,20.079,0,0,0,7.774,11.835c3.772,2.658,8.636,4.005,14.456,4.005a25.934,25.934,0,0,0,8.961-1.508,20.082,20.082,0,0,0,6.9-4.207,18.55,18.55,0,0,0,4.438-6.435,21.229,21.229,0,0,0,1.57-8.19c0-12.028-7.807-19.8-19.89-19.8a28.96,28.96,0,0,0-8.449,1.249,19.943,19.943,0,0,0-6.221,3.071l1.89-19.08h29.34v-7.2h-35.37l-3.15,31.32,6.84,1.98a15.742,15.742,0,0,1,5.681-3.364,24.319,24.319,0,0,1,8.179-1.406,13.585,13.585,0,0,1,9.742,3.521c2.4,2.342,3.668,5.73,3.668,9.8a13.154,13.154,0,0,1-3.893,9.889,14.586,14.586,0,0,1-10.238,3.611C204.694,820.65,199.559,816.853,197.326,809.67ZM54.5,764.4c-7.084,0-12.576,2.676-16.324,7.954-3.8,5.351-5.726,13.274-5.726,23.546s1.926,18.195,5.726,23.546c3.747,5.278,9.239,7.954,16.324,7.954s12.576-2.676,16.324-7.954c3.8-5.352,5.726-13.274,5.726-23.546s-1.927-18.195-5.726-23.546C67.072,767.076,61.58,764.4,54.5,764.4Zm203.67,51.21V826.5h10.26V815.61h-10.26ZM87.8,765.3v61.2h7.74V800.31h28.98v-7.02H95.536V772.5H126.5v-7.2H87.8Zm425.34-55.54h22.14l4.86,16.74h8.01l-18.99-61.2h-9.9l-18.81,61.2h7.83l4.86-16.739Zm-52.2-6.57H473.9l12.6,23.31h8.55l-13.14-24.39a15.2,15.2,0,0,0,8.269-6.5,21.808,21.808,0,0,0,2.8-11.5c0-6.278-1.582-11.054-4.7-14.2-3.038-3.06-7.573-4.612-13.478-4.612H453.2v61.2h7.74V703.191ZM401,665.3v61.2h38.43v-7.2h-30.69V699.05h28.98v-7.02h-28.98V672.5H439.7v-7.2H401Zm-104.4,0v61.2h38.43v-7.2h-30.69V699.05h28.98v-7.02h-28.98V672.5H335.3v-7.2H296.6Zm-44.46,33.93h22.32V726.5h7.74V665.3h-7.74v26.73h-22.32V665.3H244.4v61.2h7.74V699.231Zm-63.09-33.93v7.2h18.18v54h7.74v-54h18.18v-7.2h-44.1ZM95,676.285,116.236,726.5h9.36V665.3h-7.11v50.31L97.156,665.3H87.8v61.2H95V676.285Zm-58.5,43.2v7.02h36v-7.02H58.276V672.32H72.5V665.3h-36v7.02h14.22v47.16H36.5Zm421.92-110.44-7.47,1.26a24.839,24.839,0,0,0,2.554,7.646,16.875,16.875,0,0,0,4.511,5.325,18.669,18.669,0,0,0,6.4,3.115,30.734,30.734,0,0,0,8.224,1.014c5.981,0,11.062-1.486,14.692-4.3a14.76,14.76,0,0,0,4.342-5.346,17.185,17.185,0,0,0,1.575-7.456c0-9.29-4.247-14.425-13.77-16.65l-9.63-2.25c-3.327-.754-5.642-1.906-7.076-3.521a8.946,8.946,0,0,1-2.014-6.289,10.178,10.178,0,0,1,2.925-7.492,11.985,11.985,0,0,1,8.6-3.037c3.842,0,6.942,1.079,9.214,3.206a14.4,14.4,0,0,1,4.016,7.864l7.29-1.17c-.875-5.2-3-9.271-6.323-12.094-3.486-2.964-8.2-4.466-14.017-4.466h0a23.451,23.451,0,0,0-7.754,1.249,17.877,17.877,0,0,0-6.093,3.544,15.833,15.833,0,0,0-3.984,5.535,18.087,18.087,0,0,0-1.427,7.223c0,4.848,1.277,8.539,3.9,11.284,2.333,2.438,5.8,4.163,10.586,5.276l9.81,2.25c3.077.724,5.107,1.8,6.39,3.386,1.228,1.519,1.8,3.56,1.8,6.424a9.109,9.109,0,0,1-3.533,7.515c-2.256,1.737-5.485,2.655-9.338,2.655-8.129,0-12.57-3.608-14.4-11.7Zm-52.2,0-7.47,1.26a24.841,24.841,0,0,0,2.554,7.646,16.876,16.876,0,0,0,4.511,5.325,18.669,18.669,0,0,0,6.4,3.115,30.734,30.734,0,0,0,8.224,1.014c5.981,0,11.062-1.486,14.692-4.3a14.759,14.759,0,0,0,4.342-5.346,17.185,17.185,0,0,0,1.575-7.456c0-9.29-4.247-14.425-13.77-16.65l-9.63-2.25c-3.327-.754-5.642-1.906-7.076-3.521a8.945,8.945,0,0,1-2.014-6.289,10.178,10.178,0,0,1,2.925-7.492,11.985,11.985,0,0,1,8.6-3.037c3.842,0,6.942,1.079,9.214,3.206a14.4,14.4,0,0,1,4.016,7.864l7.29-1.17c-.875-5.2-3-9.271-6.323-12.094-3.486-2.964-8.2-4.466-14.017-4.466h0a23.45,23.45,0,0,0-7.754,1.249,17.877,17.877,0,0,0-6.093,3.544,15.833,15.833,0,0,0-3.984,5.535A18.087,18.087,0,0,0,401,581.95c0,4.848,1.277,8.539,3.9,11.284,2.333,2.438,5.8,4.163,10.586,5.276l9.81,2.25c3.077.724,5.107,1.8,6.39,3.386,1.228,1.519,1.8,3.56,1.8,6.424a9.109,9.109,0,0,1-3.533,7.515c-2.256,1.737-5.485,2.655-9.338,2.655-8.129,0-12.57-3.608-14.4-11.7ZM54.5,564.4c-7.084,0-12.576,2.676-16.324,7.954-3.8,5.352-5.726,13.274-5.726,23.546s1.926,18.195,5.726,23.546c3.747,5.278,9.24,7.954,16.324,7.954s12.576-2.676,16.324-7.954c3.8-5.352,5.726-13.274,5.726-23.546s-1.927-18.195-5.726-23.546C67.072,567.076,61.58,564.4,54.5,564.4Zm294.3.9v61.2h38.43v-7.2h-30.69V599.05h28.98v-7.02h-28.98V572.5H387.5v-7.2H348.8Zm-45,10.985L325.036,626.5h9.36V565.3h-7.11v50.31l-21.33-50.31H296.6v61.2h7.2V576.285ZM252.136,603.19H265.1l12.6,23.31h8.55l-13.14-24.39a15.2,15.2,0,0,0,8.269-6.5,21.808,21.808,0,0,0,2.8-11.5c0-6.278-1.582-11.054-4.7-14.2-3.038-3.06-7.573-4.612-13.478-4.612H244.4v61.2h7.74V603.191ZM192.2,565.3v61.2h38.43v-7.2h-30.69V599.05h28.98v-7.02h-28.98V572.5H230.9v-7.2H192.2Zm-44.46,33.93h22.32V626.5h7.74V565.3h-7.74v26.73h-22.32V565.3H140v61.2h7.74V599.231ZM84.646,565.3v7.2h18.18v54h7.74v-54h18.18v-7.2h-44.1ZM140,465.3v61.2h15.75c8.564,0,15.158-2.718,19.6-8.078,4.315-5.209,6.5-12.787,6.5-22.522a47.569,47.569,0,0,0-1.61-12.907,26.771,26.771,0,0,0-4.791-9.616,20.6,20.6,0,0,0-7.913-6,27.527,27.527,0,0,0-10.976-2.073H140ZM95,476.285,116.236,526.5h9.36V465.3h-7.11v50.31L97.156,465.3H87.8v61.2H95V476.285ZM43.336,509.76h22.14l4.86,16.74h8.01l-18.99-61.2h-9.9l-18.81,61.2h7.83l4.86-16.739ZM263.3,364.4c-7.084,0-12.576,2.676-16.324,7.954-3.8,5.351-5.726,13.274-5.726,23.546s1.926,18.195,5.726,23.546c3.747,5.278,9.239,7.954,16.324,7.954s12.576-2.676,16.324-7.954c3.8-5.352,5.726-13.274,5.726-23.546s-1.927-18.195-5.726-23.546C275.872,367.076,270.38,364.4,263.3,364.4Zm-51.03,0a22.061,22.061,0,0,0-9.779,2.125,19.942,19.942,0,0,0-7.3,6.166,29.244,29.244,0,0,0-4.565,9.9,56.96,56.96,0,0,0,0,26.626,29.248,29.248,0,0,0,4.565,9.9,19.941,19.941,0,0,0,7.3,6.166,22.061,22.061,0,0,0,9.779,2.125,23.519,23.519,0,0,0,8.061-1.336,19,19,0,0,0,6.407-3.884,21.45,21.45,0,0,0,4.618-6.247,31.076,31.076,0,0,0,2.694-8.423l-7.29-1.17c-.956,4.444-2.565,7.907-4.781,10.294a12.7,12.7,0,0,1-9.709,4.016,12.977,12.977,0,0,1-6.761-1.779,14.346,14.346,0,0,1-4.871-5.027c-2.576-4.274-3.937-10.479-3.937-17.944s1.362-13.669,3.937-17.944a14.346,14.346,0,0,1,4.871-5.028,12.978,12.978,0,0,1,6.761-1.779,13.4,13.4,0,0,1,5.5,1.1,12.1,12.1,0,0,1,4.084,3.021c2.107,2.355,3.7,5.784,4.725,10.193l7.29-1.17a29.591,29.591,0,0,0-2.552-8.347,21.174,21.174,0,0,0-4.569-6.255,19.035,19.035,0,0,0-6.408-3.926A23.245,23.245,0,0,0,212.266,364.4Zm-67.05,44.64-7.47,1.26a24.842,24.842,0,0,0,2.554,7.646,16.876,16.876,0,0,0,4.511,5.325,18.674,18.674,0,0,0,6.4,3.115,30.739,30.739,0,0,0,8.224,1.014c5.981,0,11.062-1.486,14.692-4.3a14.757,14.757,0,0,0,4.342-5.346,17.185,17.185,0,0,0,1.575-7.456c0-9.29-4.247-14.425-13.77-16.65l-9.63-2.25c-3.327-.754-5.642-1.906-7.076-3.521a8.946,8.946,0,0,1-2.014-6.289,10.178,10.178,0,0,1,2.925-7.492,11.984,11.984,0,0,1,8.594-3.038h0c3.843,0,6.943,1.079,9.214,3.206a14.394,14.394,0,0,1,4.016,7.864l7.29-1.17c-.875-5.2-3-9.271-6.323-12.094-3.486-2.963-8.2-4.466-14.017-4.466a23.453,23.453,0,0,0-7.755,1.249,17.874,17.874,0,0,0-6.093,3.544,15.832,15.832,0,0,0-3.984,5.535A18.084,18.084,0,0,0,140,381.95c0,4.848,1.277,8.539,3.9,11.284,2.333,2.437,5.8,4.163,10.586,5.276l9.81,2.25c3.077.724,5.107,1.8,6.39,3.386,1.228,1.519,1.8,3.56,1.8,6.424a9.109,9.109,0,0,1-3.533,7.515c-2.256,1.737-5.485,2.655-9.338,2.655-8.129,0-12.57-3.608-14.4-11.7Zm303.03-43.74,20.16,37.26V426.5h7.74V402.56l19.8-37.26h-8.64L472.456,395l-15.21-29.7Zm-39.51,37.89H421.7l12.6,23.31h8.55l-13.14-24.39a15.2,15.2,0,0,0,8.269-6.5,21.809,21.809,0,0,0,2.8-11.5c0-6.278-1.582-11.054-4.7-14.2-3.039-3.061-7.573-4.612-13.478-4.612H401v61.2h7.74V403.191ZM348.8,365.3h0v61.2h38.43v-7.2h-30.69V399.05h28.98v-7.02h-28.98V372.5H387.5v-7.2H348.8Zm-57.15,0h0l19.71,61.2h8.28l19.71-61.2h-7.92l-15.84,51.39-15.84-51.39h-8.1ZM88.7,419.48v7.02h36v-7.02h-14.22V372.32H124.7V365.3h-36v7.02h14.22v47.16H88.7ZM35.6,365.3v61.2h15.75c8.564,0,15.158-2.718,19.6-8.078,4.315-5.209,6.5-12.787,6.5-22.522a47.563,47.563,0,0,0-1.61-12.907,26.772,26.772,0,0,0-4.791-9.616,20.6,20.6,0,0,0-7.913-6A27.531,27.531,0,0,0,52.156,365.3H35.6ZM31,286.5v6H571v-6H31ZM27.357,29.4V165l57.325,56.218h81.05l57.326-56.22V85.5L187.973,51.1h35.086V29.4H165.835l-.1-.1H89.245l-50.966.1H27.357ZM315.5,820.65a11.686,11.686,0,0,1-10.7-6.334c-2.4-4.174-3.611-10.37-3.611-18.416s1.215-14.242,3.611-18.416a12.2,12.2,0,0,1,21.4,0c2.4,4.174,3.611,10.37,3.611,18.416s-1.215,14.242-3.611,18.416A11.686,11.686,0,0,1,315.5,820.65Zm-261,0a11.686,11.686,0,0,1-10.7-6.334c-2.4-4.174-3.611-10.37-3.611-18.416S41.4,781.657,43.8,777.484a11.686,11.686,0,0,1,10.7-6.334,11.686,11.686,0,0,1,10.7,6.334c2.4,4.174,3.611,10.37,3.611,18.416s-1.215,14.242-3.611,18.416A11.686,11.686,0,0,1,54.5,820.65Zm478.71-117.73h-18.18l9.09-31.32,9.09,31.319Zm-59.04-6.84h-13.23V672.41h13.23c3.846,0,6.466.79,8.246,2.486,1.961,1.868,2.914,4.911,2.914,9.3,0,3.861-.89,6.814-2.644,8.775a8.578,8.578,0,0,1-3.469,2.312A14.6,14.6,0,0,1,474.166,696.08ZM54.5,620.65a11.686,11.686,0,0,1-10.7-6.334c-2.4-4.174-3.611-10.37-3.611-18.416S41.4,581.658,43.8,577.484a11.686,11.686,0,0,1,10.7-6.334,11.686,11.686,0,0,1,10.7,6.334c2.4,4.174,3.611,10.37,3.611,18.416s-1.215,14.242-3.611,18.416A11.686,11.686,0,0,1,54.5,620.65Zm210.87-24.57h-13.23V572.41h13.23c3.846,0,6.466.79,8.246,2.486,1.961,1.868,2.914,4.911,2.914,9.3,0,3.861-.89,6.814-2.644,8.775a8.578,8.578,0,0,1-3.469,2.312A14.6,14.6,0,0,1,265.366,596.08ZM156.2,519.39h-8.46V472.41h8.46a19.339,19.339,0,0,1,7.834,1.481,13.959,13.959,0,0,1,5.565,4.426,20.349,20.349,0,0,1,3.32,7.345,48.148,48.148,0,0,1,0,20.478,20.347,20.347,0,0,1-3.32,7.345,13.957,13.957,0,0,1-5.565,4.426A19.337,19.337,0,0,1,156.2,519.39Zm-92.79-16.47H45.226l9.09-31.32,9.09,31.319ZM263.3,420.65a11.686,11.686,0,0,1-10.7-6.334c-2.4-4.174-3.611-10.37-3.611-18.416s1.215-14.243,3.611-18.416a12.2,12.2,0,0,1,21.4,0c2.4,4.174,3.611,10.37,3.611,18.416s-1.215,14.242-3.611,18.416A11.686,11.686,0,0,1,263.3,420.65ZM51.8,419.39h-8.46V372.41H51.8a19.337,19.337,0,0,1,7.834,1.481,13.957,13.957,0,0,1,5.565,4.426,20.346,20.346,0,0,1,3.32,7.345,48.147,48.147,0,0,1,0,20.478,20.347,20.347,0,0,1-3.32,7.345,13.961,13.961,0,0,1-5.565,4.426A19.339,19.339,0,0,1,51.8,419.39Zm370.17-23.31h-13.23V372.41h13.23c3.846,0,6.466.79,8.246,2.486,1.961,1.868,2.914,4.911,2.914,9.3,0,3.861-.89,6.814-2.644,8.775a8.576,8.576,0,0,1-3.469,2.312A14.6,14.6,0,0,1,421.966,396.08ZM81.982,153.265h-.006a56.559,56.559,0,0,1-14.457-1.721A36.351,36.351,0,0,1,55.9,146.262a32.212,32.212,0,0,1-8.6-9.025,43.379,43.379,0,0,1-5.4-12.948l13.363-3.382c1.971,6.488,5.166,11.505,9.5,14.911,4.535,3.566,10.331,5.373,17.227,5.372,7.753,0,14.316-2.089,18.978-6.039,4.753-4.028,7.265-9.79,7.265-16.664,0-6.817-2.2-12.03-6.54-15.494-4.248-3.392-10.55-5.111-18.731-5.111h-.006a69.958,69.958,0,0,0-13.524,1.45L65.4,88.061,105.81,55.052l-59.087.005V42.178l71.805-.006V58.593L83.592,86.932a39.032,39.032,0,0,1,4.186-.161h.005A47.554,47.554,0,0,1,102.173,88.8a29.374,29.374,0,0,1,10.783,5.981,25.717,25.717,0,0,1,6.769,9.785A36.32,36.32,0,0,1,122.072,118c0,10.738-3.862,19.716-11.17,25.962a36.647,36.647,0,0,1-12.671,6.914,52.973,52.973,0,0,1-16.249,2.387Z" fill="#ff8ba2"/>
</svg>
