<svg id="VideoPack_OC_dates" xmlns="http://www.w3.org/2000/svg" width="600" height="940.001" viewBox="0 0 600 940.001">
  <path id="Subtraction_14" data-name="Subtraction 14" d="M600,940H0V0H600V940ZM31,734.5v6H570v-6H31Zm76.944-40.3v4.44h4.32a8.329,8.329,0,0,0,5.678-1.718c1.314-1.092,2.379-2.749,3.562-5.543l13.8-32.94H130.38l-9.3,22.98-11.1-22.98H104.7l13.92,28.2L117.18,690c-1.422,3.257-2.714,4.2-5.76,4.2ZM552,645.6a20.324,20.324,0,0,0-5.757.758,12.166,12.166,0,0,0-4.3,2.2,9.485,9.485,0,0,0-2.692,3.543,11.8,11.8,0,0,0-.931,4.775,10.548,10.548,0,0,0,1.523,5.64A8.828,8.828,0,0,0,544.02,666a9.6,9.6,0,0,0-4.68,3.525,10.644,10.644,0,0,0-1.8,6.135c0,7.588,5.27,11.94,14.459,11.94a21.586,21.586,0,0,0,6.183-.82,12.67,12.67,0,0,0,4.535-2.361,9.988,9.988,0,0,0,2.791-3.756,12.649,12.649,0,0,0,.952-5,10.452,10.452,0,0,0-1.807-6.135A9.642,9.642,0,0,0,559.92,666a8.858,8.858,0,0,0,4.23-3.48,10.487,10.487,0,0,0,1.53-5.64,11.883,11.883,0,0,0-.923-4.775,9.444,9.444,0,0,0-2.677-3.543,12.1,12.1,0,0,0-4.3-2.2A20.452,20.452,0,0,0,552,645.6Zm-71.4,12.24a13.476,13.476,0,0,0-9.847,3.75,12.781,12.781,0,0,0-2.9,4.654,18.83,18.83,0,0,0-1.051,6.476,19.421,19.421,0,0,0,1.013,6.476,12.736,12.736,0,0,0,2.819,4.654,13.13,13.13,0,0,0,9.727,3.75,13.309,13.309,0,0,0,7.943-2.37,10.944,10.944,0,0,0,4.117-6.15l-4.32-.96a7.877,7.877,0,0,1-2.587,3.727,8.194,8.194,0,0,1-5.153,1.613,8.322,8.322,0,0,1-6.36-2.475c-1.564-1.671-2.432-4.109-2.58-7.245h21.72c.06-.54.06-1.5.06-2.52a13.767,13.767,0,0,0-3.533-9.84A12.273,12.273,0,0,0,480.6,657.84Zm-84.6.6h0v18.9a12.7,12.7,0,0,0,.727,4.438,8.519,8.519,0,0,0,2.078,3.212,10.687,10.687,0,0,0,7.575,2.61,11.549,11.549,0,0,0,5.055-1.178,9.491,9.491,0,0,0,3.885-3.383V687H420V658.44h-4.8v17.1a7.615,7.615,0,0,1-2.25,5.648,7.835,7.835,0,0,1-5.49,2.093c-4.295,0-6.66-2.365-6.66-6.66V658.44H396ZM85.98,670.5c-3.4,0-6.956.094-9.765,1.222-3.24,1.3-4.815,3.747-4.815,7.478a7.572,7.572,0,0,0,2.917,6.247A12.123,12.123,0,0,0,81.78,687.6a13.276,13.276,0,0,0,5.827-1.23,9.436,9.436,0,0,0,3.893-3.39V687H96V667.98c0-3.426-1.07-6.041-3.18-7.77-1.919-1.573-4.624-2.37-8.04-2.37a13.992,13.992,0,0,0-8.137,2.235,10.578,10.578,0,0,0-4.222,6.285l4.5.9c1.076-3.432,3.941-5.4,7.86-5.4a6.911,6.911,0,0,1,4.762,1.538,6.169,6.169,0,0,1,1.838,4.823v2.34C89.76,670.5,88.174,670.5,85.98,670.5Zm358.56-8.34c4.295,0,6.66,2.365,6.66,6.66V687H456V668.1a12.7,12.7,0,0,0-.728-4.438,8.517,8.517,0,0,0-2.078-3.212,10.688,10.688,0,0,0-7.575-2.61,11.543,11.543,0,0,0-5.055,1.177,9.491,9.491,0,0,0-3.885,3.383v-3.96H432V687h4.8V669.9a7.615,7.615,0,0,1,2.25-5.647A7.835,7.835,0,0,1,444.54,662.16ZM360,682.26V687h7.26a27.025,27.025,0,0,0,7.306-.846,11.838,11.838,0,0,0,5.016-2.679,10.813,10.813,0,0,0,2.89-4.727,22.71,22.71,0,0,0,.927-6.988V646.2H362.7V651h15.54v20.76c0,4.454-1.227,7.385-3.75,8.962-2.27,1.419-5.263,1.538-7.891,1.538H360ZM229.08,650.1a7.307,7.307,0,0,1,5.49,2.085,7.707,7.707,0,0,1,1.89,5.416c0,5.056-3.353,8.772-9.54,13.86L214.5,681.72V687h27.6v-4.8H220.56l9.3-7.38c4.644-3.661,7.24-6.129,8.962-8.52a14.033,14.033,0,0,0,2.8-8.7,11.868,11.868,0,0,0-3.27-8.7c-2.19-2.159-5.375-3.3-9.21-3.3a16.78,16.78,0,0,0-5.679.935,13.719,13.719,0,0,0-4.469,2.628,16.149,16.149,0,0,0-4.972,9.278l4.92.9a13.006,13.006,0,0,1,3.517-6.623A9.394,9.394,0,0,1,229.08,650.1Zm-49.62,32.1h0V687H207.9v-4.8H196.8v-36h-5.58l-13.92,8.1,2.4,4.08,12.06-6.719V682.2h-12.3Zm-121.5-29.575h0V687H62.7V646.2H55.44L48,669.54,40.56,646.2H33.3V687h4.74V652.98L45.66,675.96h4.68ZM291.6,668.58v4.68h16.8v-4.68H291.6ZM31,602.5v6H570v-6H31ZM361.3,491a24.512,24.512,0,0,0-10.866,2.361,22.153,22.153,0,0,0-8.109,6.851,32.5,32.5,0,0,0-5.072,10.995,63.293,63.293,0,0,0,0,29.584,32.5,32.5,0,0,0,5.072,11,22.154,22.154,0,0,0,8.109,6.851A24.512,24.512,0,0,0,361.3,561a26.138,26.138,0,0,0,8.956-1.484,21.1,21.1,0,0,0,7.119-4.316,23.83,23.83,0,0,0,5.131-6.94A34.533,34.533,0,0,0,385.5,538.9l-8.1-1.3c-1.062,4.938-2.849,8.787-5.312,11.438A14.105,14.105,0,0,1,361.3,553.5a14.42,14.42,0,0,1-7.512-1.977,15.94,15.94,0,0,1-5.412-5.586,28.645,28.645,0,0,1-3.275-8.68,58.158,58.158,0,0,1,0-22.516,28.642,28.642,0,0,1,3.275-8.68,15.94,15.94,0,0,1,5.412-5.586A14.42,14.42,0,0,1,361.3,498.5a14.9,14.9,0,0,1,6.113,1.219,13.442,13.442,0,0,1,4.538,3.356c2.341,2.616,4.107,6.426,5.25,11.325l8.1-1.3a32.878,32.878,0,0,0-2.836-9.275,23.527,23.527,0,0,0-5.077-6.95,21.156,21.156,0,0,0-7.12-4.362A25.833,25.833,0,0,0,361.3,491ZM60,491c-7.872,0-13.974,2.973-18.138,8.837C37.64,505.784,35.5,514.586,35.5,526s2.141,20.217,6.363,26.163C46.026,558.026,52.129,561,60,561s13.974-2.973,18.137-8.837C82.36,546.216,84.5,537.414,84.5,526s-2.141-20.216-6.363-26.162C73.974,493.974,67.872,491,60,491Zm460,1v68h42.5v-8H528.6V492H520Zm-60,0v68h42.5v-8H468.6V492H460Zm-52.4,49.4h24.6l5.4,18.6h8.9l-21.1-68h-11l-20.9,68h8.7l5.4-18.6ZM227,504.2,250.6,560H261V492h-7.9v55.9L229.4,492H219v68h8V504.2ZM159,492v68h42.7v-8H167.6V529.5h32.2v-7.8H167.6V500H202v-8H159Zm-60,0v68h8.6V534.2h14.9a28.857,28.857,0,0,0,9.513-1.458,18.227,18.227,0,0,0,6.888-4.2,17.7,17.7,0,0,0,4.188-6.7A26.547,26.547,0,0,0,144.5,512.9a28.636,28.636,0,0,0-1.328-9.172,16.091,16.091,0,0,0-4.047-6.528,17.191,17.191,0,0,0-6.86-3.9A32.977,32.977,0,0,0,122.5,492H99ZM26.357,29.4V165l57.325,56.218h81.05l57.326-56.22V85.5L186.973,51.1h35.086V29.4H164.835l-.1-.1H88.245l-50.966.1H26.357ZM82.26,683.52c-3.794,0-6.06-1.7-6.06-4.56a3.826,3.826,0,0,1,2.992-3.923c2.107-.718,5.344-.817,8.528-.817,1.038,0,2.46,0,3.659.06v2.52a5.854,5.854,0,0,1-2.67,4.912A11.283,11.283,0,0,1,82.26,683.52Zm469.74-.36c-5.861,0-9.36-2.826-9.36-7.56a6.783,6.783,0,0,1,2.317-5.505c1.593-1.324,3.962-2,7.042-2,6.036,0,9.36,2.664,9.36,7.5a6.867,6.867,0,0,1-2.453,5.512A10.773,10.773,0,0,1,552,683.161Zm-63.3-13.2H471.54a9.5,9.5,0,0,1,2.955-6.022,9.015,9.015,0,0,1,6.105-2.018,7.914,7.914,0,0,1,5.85,2.31,8.479,8.479,0,0,1,2.25,5.729Zm63.3-5.94c-5.691,0-8.7-2.448-8.7-7.08a6.242,6.242,0,0,1,2.235-5.047,12.208,12.208,0,0,1,12.93,0,6.242,6.242,0,0,1,2.235,5.047C560.7,661.572,557.692,664.02,552,664.02ZM60,553.5a12.984,12.984,0,0,1-11.888-7.038C45.45,541.825,44.1,534.94,44.1,526s1.35-15.824,4.012-20.462A12.984,12.984,0,0,1,60,498.5a12.984,12.984,0,0,1,11.887,7.038C74.55,510.175,75.9,517.06,75.9,526s-1.35,15.825-4.013,20.463A12.983,12.983,0,0,1,60,553.5Zm369.9-19.7H409.7L419.8,499l10.1,34.8Zm-307.8-7.5H107.6V499.9h14.5c4.362,0,7.588.9,9.862,2.763a9.784,9.784,0,0,1,2.892,4.03A17.144,17.144,0,0,1,135.9,513c0,4.313-1.161,7.636-3.45,9.875C130.127,525.148,126.645,526.3,122.1,526.3ZM80.982,153.265h-.006a56.559,56.559,0,0,1-14.457-1.721A36.353,36.353,0,0,1,54.9,146.262a32.207,32.207,0,0,1-8.6-9.025,43.373,43.373,0,0,1-5.4-12.948l13.363-3.382c1.971,6.488,5.166,11.505,9.5,14.911,4.535,3.566,10.331,5.373,17.227,5.372,7.753,0,14.316-2.089,18.978-6.039,4.753-4.028,7.265-9.79,7.265-16.664,0-6.817-2.2-12.03-6.54-15.494-4.249-3.392-10.551-5.111-18.731-5.111h-.006a69.958,69.958,0,0,0-13.524,1.45L64.4,88.061,104.81,55.052l-59.087.005V42.178l71.806-.006V58.593L82.592,86.932a39.032,39.032,0,0,1,4.186-.161h.005A47.554,47.554,0,0,1,101.173,88.8a29.379,29.379,0,0,1,10.783,5.981,25.726,25.726,0,0,1,6.769,9.785A36.316,36.316,0,0,1,121.072,118c0,10.738-3.863,19.716-11.17,25.962a36.647,36.647,0,0,1-12.671,6.914,52.974,52.974,0,0,1-16.249,2.387Z" fill="#ff8ba2"/>
</svg>
